HIERARCHY
ROOT pelvis
{
  OFFSET 0 0 0
  CHANNELS 6 Xposition Yposition Zposition Zrotation Xrotation Yrotation
  JOINT pelvis_right_femur
  {
    OFFSET -11.43119 -3.542788 0.2090856
    CHANNELS 3 Zrotation Xrotation Yrotation
    JOINT right_femur_tibia
    {
      OFFSET -1.028693 -40.73281 5
      CHANNELS 3 Zrotation Xrotation Yrotation
      JOINT right_tibia_foot
      {
        OFFSET -0.5013517 -42.05707 -5
        CHANNELS 3 Zrotation Xrotation Yrotation
        End Site
        {
          OFFSET 0 -5 10
        }
      }
    }
  }
  JOINT pelvis_left_femur
  {
    OFFSET 11.43119 -3.542788 0.2090856
    CHANNELS 3 Zrotation Xrotation Yrotation
    JOINT left_femur_tibia
    {
      OFFSET 1.028693 -40.73281 5
      CHANNELS 3 Zrotation Xrotation Yrotation
      JOINT left_tibia_foot
      {
        OFFSET 0.3200228 -42.98253 -5
        CHANNELS 3 Zrotation Xrotation Yrotation
        End Site
        {
          OFFSET 0 -5 10
        }
      }
    }
  }
  JOINT pelvis_spine1
  {
    OFFSET 0 8.64413 -3.209807
    CHANNELS 3 Zrotation Xrotation Yrotation
    JOINT spine1
    {
      OFFSET 0 29.53957 -1.762685
      CHANNELS 3 Zrotation Xrotation Yrotation
      JOINT spine2
      {
        OFFSET 0 16.36153 -0.1422377
        CHANNELS 3 Zrotation Xrotation Yrotation
        JOINT neck
        {
          OFFSET 0 11.60093 5
          CHANNELS 3 Zrotation Xrotation Yrotation
          End Site
          {
            OFFSET 0 20 0
          }
        }
      }
      JOINT right_manubrium
      {
        OFFSET -4.671311 15.89868 4
        CHANNELS 3 Zrotation Xrotation Yrotation
        JOINT right_clavicle
        {
          OFFSET -13.601 1.573642 -2.74176
          CHANNELS 3 Zrotation Xrotation Yrotation
          JOINT right_humerus
          {
            OFFSET -0.06331682 -27.72702 2.252146
            CHANNELS 3 Zrotation Xrotation Yrotation
            JOINT right_radius
            {
              OFFSET -0.5696302 -23.92083 0.4042105
              CHANNELS 3 Zrotation Xrotation Yrotation
              End Site
              {
                OFFSET 0 -15 0
              }
            }
          }
        }
      }
      JOINT left_manubrium
      {
        OFFSET 4.671311 15.89868 4
        CHANNELS 3 Zrotation Xrotation Yrotation
        JOINT left_clavicle
        {
          OFFSET 13.601 1.573642 -2.74176
          CHANNELS 3 Zrotation Xrotation Yrotation
          JOINT left_humerus
          {
            OFFSET 0.000209614 -29.01858 1.101395
            CHANNELS 3 Zrotation Xrotation Yrotation
            JOINT left_radius
            {
              OFFSET -0.2288314 -24.59216 1.790347
              CHANNELS 3 Zrotation Xrotation Yrotation
              End Site
              {
                OFFSET 0 -15 0
              }
            }
          }
        }
      }
    }
  }
}
MOTION
Frames: 7
Frame Time: 0.0416666666667
0 48.05195 0 -2.753911 -22.0407 -1.115146 -51.39055 -59.87149 -40.70838 -180 81.29829 -180 10.53142 2.817985 3.747858 62.78188 -50.03787 49.12249 -180 71.52696 -180 -7.406494 -7.486774 -11.1418 -0.7921391 19.70976 2.933711 7.921352 14.09122 -8.991194 -12.47989 5.657998 11.57107 4.547963 -31.62852 4.231295 19.96976 -8.692156 25.84157 -58.48718 -31.1968 13.81814 0 -64.23424 0 21.79981 4.301548 37.6768 -26.87332 -26.36943 -2.915328 55.64092 -23.57288 -30.56875 0 -72.63643 0 -3.471332 -5.318622 -15.12992
-0.02138329 48.00566 -0.05294095 -2.732832 -21.99293 -1.156974 -51.34086 -60.08717 -40.60415 -180 81.28451 -180 10.53392 2.803961 3.647365 62.76268 -50.19692 49.06467 -180 71.52861 -180 -7.425908 -7.490758 -11.00081 -0.6521642 19.84801 2.92284 7.412991 14.15766 -8.645944 -12.00292 5.37626 11.47566 4.730768 -32.36004 4.565376 20.16363 -8.820577 25.43791 -58.43482 -31.24241 13.76666 0 -64.60378 0 21.76773 4.246799 37.57219 -27.20455 -27.22593 -1.850727 56.03217 -21.4545 -27.16984 0 -72.68784 0 -0.6195733 -7.620342 -12.50466
-0.05140086 48.01108 -0.07519769 -2.706256 -21.90492 -1.09279 -51.32513 -60.20532 -40.59149 -180 81.27063 -180 10.54976 2.774287 3.529686 62.78699 -50.32341 49.10009 -180 71.56746 -180 -7.427053 -7.47379 -10.9581 -0.5620769 19.89893 3.045797 6.956752 14.36935 -8.35746 -11.42639 5.186534 11.35874 4.967471 -33.04368 4.918692 20.34513 -8.993544 24.91584 -58.43684 -31.25455 13.66921 0 -65.09466 0 21.72684 4.157748 37.44676 -27.38721 -28.33016 -0.6183238 56.58335 -19.01489 -23.27947 0 -72.05441 0 2.64996 -9.892722 -9.325081
-0.103383 48.00424 -0.1116458 -2.680047 -21.79852 -0.9092555 -51.46839 -60.22531 -40.75269 -180 81.24492 -180 10.57833 2.732647 3.415397 62.91936 -50.4745 49.26651 -180 71.65288 -180 -7.414479 -7.447068 -11.01232 -0.5258646 20.00196 3.249328 6.657915 14.51839 -8.106308 -10.89457 5.074905 11.20991 5.179946 -33.62675 5.198526 20.44288 -9.217194 24.35078 -58.56836 -31.18443 13.48686 0 -65.65839 0 21.68399 4.033855 37.30095 -27.15625 -29.60661 0.520949 57.28517 -16.66177 -19.37395 0 -70.47457 0 6.040197 -11.88815 -5.712879
-0.150092 48.00774 -0.1211505 -2.661789 -21.67649 -0.6166796 -51.73501 -60.12692 -41.04025 -180 81.21254 -180 10.61878 2.667347 3.297415 63.09312 -50.64294 49.50832 -180 71.73913 -180 -7.385714 -7.407513 -11.15568 -0.5498171 20.11275 3.508586 6.535606 14.5883 -7.959839 -10.48551 5.014588 11.05664 5.337214 -34.08796 5.395945 20.45641 -9.407507 23.78134 -58.80419 -31.00501 13.28667 0 -66.29496 0 21.66156 3.863342 37.13932 -26.61308 -31.08966 1.291594 58.0828 -14.63056 -15.62321 0 -67.76545 0 9.253396 -13.42997 -1.80784
-0.1612742 48.02601 -0.1090386 -2.680315 -21.53609 -0.273252 -51.96912 -59.97991 -41.29034 -180 81.1827 -180 10.66629 2.587262 3.169443 63.31997 -50.81769 49.83377 -180 71.81579 -180 -7.352034 -7.368232 -11.36888 -0.6161037 20.19935 3.723474 6.547084 14.59329 -7.932731 -10.18578 4.987275 10.93874 5.453254 -34.41778 5.573186 20.455 -9.54081 23.25794 -59.06347 -30.77238 13.12757 0 -66.95641 0 21.65533 3.655187 36.95476 -25.94241 -32.73549 1.645188 58.89763 -12.91878 -12.08506 0 -64.09729 0 12.15559 -14.52696 2.245881
-0.1443398 48.04614 -0.07858977 -2.729431 -21.3928 0.07763566 -52.10103 -59.84484 -41.39594 -180 81.17618 -180 10.71422 2.501774 3.016979 63.62829 -50.94391 50.25024 -180 71.86426 -180 -7.317165 -7.343098 -11.62535 -0.672857 20.25527 3.855406 6.586922 14.55597 -7.933172 -9.990675 5.009913 10.85905 5.529684 -34.61738 5.739559 20.50146 -9.626028 22.81833 -59.29167 -30.53693 13.0257 0 -67.54789 0 21.65443 3.431221 36.73441 -25.27051 -34.54377 1.746896 59.68482 -11.50444 -8.740537 0 -60.0096 0 14.69203 -15.35548 6.247704
